<svg xmlns="http://www.w3.org/2000/svg" viewBox="0.00 0.00 75.00 76.00"><g stroke-width="2.00" fill="none" stroke-linecap="butt"><path stroke="#39703d" stroke-opacity="0.682" d="  M 71.68 64.17  L 69.22 67.71"></path><path stroke="#85c227" d="  M 63.40 72.36  L 59.11 66.23  Q 58.82 65.82 58.84 65.33  Q 58.90 62.94 56.85 61.37"></path><path stroke="#3b804e" d="  M 56.85 61.37  Q 57.07 61.07 57.58 60.81  A 0.20 0.20 0.0 0 0 57.69 60.58  Q 57.59 60.13 57.25 60.26  Q 56.53 60.54 56.93 59.88  Q 58.10 57.99 59.88 56.61  A 0.50 0.50 0.0 0 0 60.06 56.30  Q 60.23 55.42 59.03 55.65"></path><path stroke="#a6c8a5" d="  M 59.03 55.65  Q 67.48 44.71 64.42 31.09  Q 64.36 30.82 64.21 30.73  Q 64.01 30.62 63.74 30.72"></path><path stroke="#468c50" d="  M 63.74 30.72  Q 64.11 29.06 63.13 28.20"></path><path stroke="#85c227" d="  M 63.13 28.20  L 63.46 27.90  Q 63.85 27.56 63.79 27.05  Q 62.95 19.56 64.28 12.16  Q 64.43 11.30 63.73 11.82  L 61.59 13.41"></path><path stroke="#3d8346" d="  M 61.59 13.41  Q 61.08 12.58 59.77 13.56  C 58.59 14.44 57.68 16.10 56.54 17.18  Q 56.27 17.43 56.13 17.09  Q 55.41 15.30 52.93 13.90  Q 43.76 8.75 34.98 9.62"></path><path stroke="#468c50" d="  M 34.98 9.62  L 29.40 8.61  Q 28.92 8.53 28.57 8.19  Q 27.31 6.99 24.40 5.35  Q 22.84 4.47 19.60 1.17"></path><path stroke="#7fbc2b" d="  M 63.13 28.20  L 56.56 33.40"></path><path stroke="#74b029" d="  M 56.56 33.40  Q 45.85 42.58 37.75 53.90  Q 37.49 54.26 37.24 53.89  C 31.39 45.43 21.45 38.79 12.15 34.68  Q 11.36 34.33 10.14 34.09"></path><path stroke="#76b322" d="  M 61.59 13.41  C 52.55 21.45 44.94 31.86 38.54 42.07  Q 38.23 42.57 37.84 42.14  C 32.71 36.53 27.91 31.63 21.50 27.42  Q 21.07 27.14 20.71 27.51  Q 16.61 31.68 11.12 33.04  Q 10.68 33.14 10.47 33.39  Q 10.18 33.71 10.14 34.09"></path><path stroke="#2c7149" d="  M 10.14 34.09  L 8.12 36.84"></path><path stroke="#297153" d="  M 8.12 36.84  Q 9.41 35.14 8.96 33.25  Q 8.87 32.89 9.12 32.62  L 9.44 32.27  Q 9.71 31.98 9.51 31.63  Q 8.74 30.29 9.77 27.99"></path><path stroke="#9fc3aa" d="  M 63.74 30.72  L 58.56 35.07  A 1.20 1.20 0.0 0 0 58.13 36.07  Q 58.87 47.79 49.61 54.89"></path><path stroke="#347a52" d="  M 49.61 54.89  L 49.61 54.42  A 0.63 0.62 72.0 0 0 48.62 53.91  Q 46.24 55.62 43.36 56.08  Q 42.82 56.17 42.36 56.47  Q 41.20 57.23 39.97 56.70  A 1.23 1.23 0.0 0 1 39.33 55.07  Q 39.66 54.33 40.19 53.74  Q 40.54 53.36 40.81 52.92  Q 41.21 52.27 41.37 51.46  A 0.84 0.82 -20.4 0 1 41.54 51.10  Q 42.84 49.48 44.22 47.93  Q 44.49 47.63 44.79 46.92  C 45.19 45.97 46.41 45.37 46.84 44.87  Q 51.58 39.52 56.81 34.67  Q 57.17 34.34 57.12 33.85  Q 57.08 33.34 56.56 33.40"></path><path stroke="#377d4b" d="  M 34.98 9.62  Q 28.14 9.81 21.13 14.38  Q 12.56 19.95 9.77 27.99"></path><path stroke="#327a5c" d="  M 9.77 27.99  L 7.18 30.85  A 0.40 0.40 0.0 0 1 6.49 30.65  Q 6.43 30.27 6.04 30.35  Q 5.56 30.44 5.57 30.93  Q 5.57 31.63 5.01 31.96  A 0.58 0.58 0.0 0 1 4.23 31.77  Q 3.71 30.93 2.93 30.32  Q 2.53 30.00 2.04 30.08  L 1.00 30.25  Q 0.59 30.32 0.63 29.91  Q 0.69 29.09 0.31 28.70"></path><path stroke="#94b7a8" d="  M 59.03 55.65  C 41.30 75.86 8.75 63.74 9.70 36.61  A 0.21 0.20 -76.7 0 1 9.99 36.43  L 16.51 39.66  Q 16.75 39.78 16.78 40.04  C 18.76 56.39 35.92 63.73 49.61 54.89"></path><path stroke="#74b029" d="  M 56.85 61.37  Q 53.72 64.25 49.95 65.78  Q 49.49 65.96 49.63 66.43  Q 50.33 68.86 52.60 69.79  Q 53.11 70.00 53.32 70.51  Q 54.58 73.58 56.56 74.99"></path><path stroke="#276e5a" d="  M 8.12 36.84  L 7.63 46.42  Q 7.61 46.89 7.91 47.26  Q 8.62 48.14 9.02 49.49  Q 10.17 53.47 12.67 57.14  C 14.01 59.10 16.30 61.05 17.98 63.07  C 19.43 64.81 22.89 66.66 25.09 67.00  Q 27.02 67.30 27.85 67.61  C 29.88 68.39 31.40 69.37 33.64 69.37  Q 35.38 69.37 37.17 69.37  Q 37.47 69.37 37.59 69.09  Q 37.65 68.95 37.63 68.78  Q 37.56 68.35 38.00 68.38  Q 39.33 68.47 40.51 67.85  A 0.27 0.27 0.0 0 0 40.34 67.34  Q 37.18 67.93 34.00 67.35  Q 33.08 67.18 34.01 67.12  L 47.43 66.24  Q 47.93 66.21 48.23 66.62  Q 48.74 67.32 48.90 68.17  A 1.23 1.21 -77.3 0 0 49.36 68.91  Q 52.74 71.40 54.06 75.42"></path><path stroke="#1c564f" stroke-opacity="0.682" d="  M 18.27 75.35  Q 5.33 71.02 1.50 60.41"></path><path stroke="#276e5a" d="  M 1.50 60.41  Q 1.30 58.80 0.59 58.20"></path><path stroke="#205640" stroke-opacity="0.682" d="  M 1.50 60.41  Q 1.25 59.85 0.97 60.30  Q 0.90 60.41 0.82 60.31  Q 0.74 60.21 0.53 60.21"></path><path stroke="#97baa0" d="  M 20.69 23.85  L 21.32 24.30  Q 21.75 24.62 22.12 24.23  C 29.37 16.36 41.16 15.06 49.75 21.51  A 0.35 0.35 0.0 0 0 50.21 21.46  L 54.75 16.51  Q 54.99 16.25 54.70 16.05  Q 37.70 4.69 21.71 15.14  Q 13.99 20.18 10.95 29.88  Q 10.82 30.26 11.21 30.16  Q 16.75 28.80 19.74 24.03  Q 20.12 23.42 20.69 23.85"></path><path stroke="#377d4b" d="  M 46.28 28.41  Q 48.17 26.19 50.04 23.95  Q 50.32 23.61 49.94 23.37  L 44.95 20.26  A 0.96 0.94 58.3 0 0 44.39 20.12  Q 42.83 20.21 41.48 19.42  Q 41.11 19.20 40.67 19.18  Q 38.21 19.04 35.74 18.90  C 34.05 18.80 32.48 19.48 30.80 19.82  Q 30.37 19.91 30.14 20.28  Q 29.82 20.79 29.26 20.87  C 27.25 21.18 25.71 22.29 24.66 24.06  A 1.58 1.52 5.8 0 1 23.78 24.75  Q 22.73 25.07 22.35 25.90  Q 22.08 26.48 22.63 26.82  Q 26.73 29.35 30.04 32.82  Q 30.18 32.97 30.41 33.06  Q 30.82 33.22 31.14 33.51  L 36.51 38.49  A 2.05 2.04 -50.4 0 0 39.55 38.20  C 41.88 35.04 43.74 31.39 46.28 28.41"></path></g><path fill="#4c914b" d="  M 71.68 64.17  L 69.22 67.71  L 63.40 72.36  L 59.11 66.23  Q 58.82 65.82 58.84 65.33  Q 58.90 62.94 56.85 61.37  Q 57.07 61.07 57.58 60.81  A 0.20 0.20 0.0 0 0 57.69 60.58  Q 57.59 60.13 57.25 60.26  Q 56.53 60.54 56.93 59.88  Q 58.10 57.99 59.88 56.61  A 0.50 0.50 0.0 0 0 60.06 56.30  Q 60.23 55.42 59.03 55.65  Q 67.48 44.71 64.42 31.09  Q 64.36 30.82 64.21 30.73  Q 64.01 30.62 63.74 30.72  Q 64.11 29.06 63.13 28.20  L 63.46 27.90  Q 63.85 27.56 63.79 27.05  Q 62.95 19.56 64.28 12.16  Q 64.43 11.30 63.73 11.82  L 61.59 13.41  Q 61.08 12.58 59.77 13.56  C 58.59 14.44 57.68 16.10 56.54 17.18  Q 56.27 17.43 56.13 17.09  Q 55.41 15.30 52.93 13.90  Q 43.76 8.75 34.98 9.62  L 29.40 8.61  Q 28.92 8.53 28.57 8.19  Q 27.31 6.99 24.40 5.35  Q 22.84 4.47 19.60 1.17  Q 33.74 1.07 47.70 1.04  Q 55.85 1.02 59.90 2.42  Q 69.75 5.82 73.23 15.75  Q 74.55 19.52 74.54 26.40  Q 74.52 40.83 74.52 55.25  Q 74.52 58.97 71.68 64.17  Z"></path><path fill="#3f8654" d="  M 19.60 1.17  Q 22.84 4.47 24.40 5.35  Q 27.31 6.99 28.57 8.19  Q 28.92 8.53 29.40 8.61  L 34.98 9.62  Q 28.14 9.81 21.13 14.38  Q 12.56 19.95 9.77 27.99  L 7.18 30.85  A 0.40 0.40 0.0 0 1 6.49 30.65  Q 6.43 30.27 6.04 30.35  Q 5.56 30.44 5.57 30.93  Q 5.57 31.63 5.01 31.96  A 0.58 0.58 0.0 0 1 4.23 31.77  Q 3.71 30.93 2.93 30.32  Q 2.53 30.00 2.04 30.08  L 1.00 30.25  Q 0.59 30.32 0.63 29.91  Q 0.69 29.09 0.31 28.70  C -0.06 22.29 0.15 18.05 2.62 13.28  C 6.12 6.50 11.96 2.32 19.60 1.17  Z"></path><path fill="#2e7441" d="  M 34.98 9.62  Q 43.76 8.75 52.93 13.90  Q 55.41 15.30 56.13 17.09  Q 56.27 17.43 56.54 17.18  C 57.68 16.10 58.59 14.44 59.77 13.56  Q 61.08 12.58 61.59 13.41  C 52.55 21.45 44.94 31.86 38.54 42.07  Q 38.23 42.57 37.84 42.14  C 32.71 36.53 27.91 31.63 21.50 27.42  Q 21.07 27.14 20.71 27.51  Q 16.61 31.68 11.12 33.04  Q 10.68 33.14 10.47 33.39  Q 10.18 33.71 10.14 34.09  L 8.12 36.84  Q 9.41 35.14 8.96 33.25  Q 8.87 32.89 9.12 32.62  L 9.44 32.27  Q 9.71 31.98 9.51 31.63  Q 8.74 30.29 9.77 27.99  Q 12.56 19.95 21.13 14.38  Q 28.14 9.81 34.98 9.62  Z  M 20.69 23.85  L 21.32 24.30  Q 21.75 24.62 22.12 24.23  C 29.37 16.36 41.16 15.06 49.75 21.51  A 0.35 0.35 0.0 0 0 50.21 21.46  L 54.75 16.51  Q 54.99 16.25 54.70 16.05  Q 37.70 4.69 21.71 15.14  Q 13.99 20.18 10.95 29.88  Q 10.82 30.26 11.21 30.16  Q 16.75 28.80 19.74 24.03  Q 20.12 23.42 20.69 23.85  Z  M 46.28 28.41  Q 48.17 26.19 50.04 23.95  Q 50.32 23.61 49.94 23.37  L 44.95 20.26  A 0.96 0.94 58.3 0 0 44.39 20.12  Q 42.83 20.21 41.48 19.42  Q 41.11 19.20 40.67 19.18  Q 38.21 19.04 35.74 18.90  C 34.05 18.80 32.48 19.48 30.80 19.82  Q 30.37 19.91 30.14 20.28  Q 29.82 20.79 29.26 20.87  C 27.25 21.18 25.71 22.29 24.66 24.06  A 1.58 1.52 5.8 0 1 23.78 24.75  Q 22.73 25.07 22.35 25.90  Q 22.08 26.48 22.63 26.82  Q 26.73 29.35 30.04 32.82  Q 30.18 32.97 30.41 33.06  Q 30.82 33.22 31.14 33.51  L 36.51 38.49  A 2.05 2.04 -50.4 0 0 39.55 38.20  C 41.88 35.04 43.74 31.39 46.28 28.41  Z"></path><path fill="#ffffff" d="  M 19.74 24.03  Q 16.75 28.80 11.21 30.16  Q 10.82 30.26 10.95 29.88  Q 13.99 20.18 21.71 15.14  Q 37.70 4.69 54.70 16.05  Q 54.99 16.25 54.75 16.51  L 50.21 21.46  A 0.35 0.35 0.0 0 1 49.75 21.51  C 41.16 15.06 29.37 16.36 22.12 24.23  Q 21.75 24.62 21.32 24.30  L 20.69 23.85  Q 20.12 23.42 19.74 24.03  Z"></path><path fill="#bef202" d="  M 63.13 28.20  L 56.56 33.40  Q 45.85 42.58 37.75 53.90  Q 37.49 54.26 37.24 53.89  C 31.39 45.43 21.45 38.79 12.15 34.68  Q 11.36 34.33 10.14 34.09  Q 10.18 33.71 10.47 33.39  Q 10.68 33.14 11.12 33.04  Q 16.61 31.68 20.71 27.51  Q 21.07 27.14 21.50 27.42  C 27.91 31.63 32.71 36.53 37.84 42.14  Q 38.23 42.57 38.54 42.07  C 44.94 31.86 52.55 21.45 61.59 13.41  L 63.73 11.82  Q 64.43 11.30 64.28 12.16  Q 62.95 19.56 63.79 27.05  Q 63.85 27.56 63.46 27.90  L 63.13 28.20  Z"></path><path fill="#3f8654" d="  M 46.28 28.41  C 43.74 31.39 41.88 35.04 39.55 38.20  A 2.05 2.04 -50.4 0 1 36.51 38.49  L 31.14 33.51  Q 30.82 33.22 30.41 33.06  Q 30.18 32.97 30.04 32.82  Q 26.73 29.35 22.63 26.82  Q 22.08 26.48 22.35 25.90  Q 22.73 25.07 23.78 24.75  A 1.58 1.52 5.8 0 0 24.66 24.06  C 25.71 22.29 27.25 21.18 29.26 20.87  Q 29.82 20.79 30.14 20.28  Q 30.37 19.91 30.80 19.82  C 32.48 19.48 34.05 18.80 35.74 18.90  Q 38.21 19.04 40.67 19.18  Q 41.11 19.20 41.48 19.42  Q 42.83 20.21 44.39 20.12  A 0.96 0.94 58.3 0 1 44.95 20.26  L 49.94 23.37  Q 50.32 23.61 50.04 23.95  Q 48.17 26.19 46.28 28.41  Z"></path><path fill="#246e64" d="  M 9.77 27.99  Q 8.74 30.29 9.51 31.63  Q 9.71 31.98 9.44 32.27  L 9.12 32.62  Q 8.87 32.89 8.96 33.25  Q 9.41 35.14 8.12 36.84  L 7.63 46.42  Q 7.61 46.89 7.91 47.26  Q 8.62 48.14 9.02 49.49  Q 10.17 53.47 12.67 57.14  C 14.01 59.10 16.30 61.05 17.98 63.07  C 19.43 64.81 22.89 66.66 25.09 67.00  Q 27.02 67.30 27.85 67.61  C 29.88 68.39 31.40 69.37 33.64 69.37  Q 35.38 69.37 37.17 69.37  Q 37.47 69.37 37.59 69.09  Q 37.65 68.95 37.63 68.78  Q 37.56 68.35 38.00 68.38  Q 39.33 68.47 40.51 67.85  A 0.27 0.27 0.0 0 0 40.34 67.34  Q 37.18 67.93 34.00 67.35  Q 33.08 67.18 34.01 67.12  L 47.43 66.24  Q 47.93 66.21 48.23 66.62  Q 48.74 67.32 48.90 68.17  A 1.23 1.21 -77.3 0 0 49.36 68.91  Q 52.74 71.40 54.06 75.42  L 18.27 75.35  Q 5.33 71.02 1.50 60.41  Q 1.30 58.80 0.59 58.20  L 0.31 28.70  Q 0.69 29.09 0.63 29.91  Q 0.59 30.32 1.00 30.25  L 2.04 30.08  Q 2.53 30.00 2.93 30.32  Q 3.71 30.93 4.23 31.77  A 0.58 0.58 0.0 0 0 5.01 31.96  Q 5.57 31.63 5.57 30.93  Q 5.56 30.44 6.04 30.35  Q 6.43 30.27 6.49 30.65  A 0.40 0.40 0.0 0 0 7.18 30.85  L 9.77 27.99  Z"></path><path fill="#3f8654" d="  M 63.13 28.20  Q 64.11 29.06 63.74 30.72  L 58.56 35.07  A 1.20 1.20 0.0 0 0 58.13 36.07  Q 58.87 47.79 49.61 54.89  L 49.61 54.42  A 0.63 0.62 72.0 0 0 48.62 53.91  Q 46.24 55.62 43.36 56.08  Q 42.82 56.17 42.36 56.47  Q 41.20 57.23 39.97 56.70  A 1.23 1.23 0.0 0 1 39.33 55.07  Q 39.66 54.33 40.19 53.74  Q 40.54 53.36 40.81 52.92  Q 41.21 52.27 41.37 51.46  A 0.84 0.82 -20.4 0 1 41.54 51.10  Q 42.84 49.48 44.22 47.93  Q 44.49 47.63 44.79 46.92  C 45.19 45.97 46.41 45.37 46.84 44.87  Q 51.58 39.52 56.81 34.67  Q 57.17 34.34 57.12 33.85  Q 57.08 33.34 56.56 33.40  L 63.13 28.20  Z"></path><path fill="#ffffff" d="  M 63.74 30.72  Q 64.01 30.62 64.21 30.73  Q 64.36 30.82 64.42 31.09  Q 67.48 44.71 59.03 55.65  C 41.30 75.86 8.75 63.74 9.70 36.61  A 0.21 0.20 -76.7 0 1 9.99 36.43  L 16.51 39.66  Q 16.75 39.78 16.78 40.04  C 18.76 56.39 35.92 63.73 49.61 54.89  Q 58.87 47.79 58.13 36.07  A 1.20 1.20 0.0 0 1 58.56 35.07  L 63.74 30.72  Z"></path><path fill="#296e50" d="  M 56.56 33.40  Q 57.08 33.34 57.12 33.85  Q 57.17 34.34 56.81 34.67  Q 51.58 39.52 46.84 44.87  C 46.41 45.37 45.19 45.97 44.79 46.92  Q 44.49 47.63 44.22 47.93  Q 42.84 49.48 41.54 51.10  A 0.84 0.82 -20.4 0 0 41.37 51.46  Q 41.21 52.27 40.81 52.92  Q 40.54 53.36 40.19 53.74  Q 39.66 54.33 39.33 55.07  A 1.23 1.23 0.0 0 0 39.97 56.70  Q 41.20 57.23 42.36 56.47  Q 42.82 56.17 43.36 56.08  Q 46.24 55.62 48.62 53.91  A 0.63 0.62 72.0 0 1 49.61 54.42  L 49.61 54.89  C 35.92 63.73 18.76 56.39 16.78 40.04  Q 16.75 39.78 16.51 39.66  L 9.99 36.43  A 0.21 0.20 -76.7 0 0 9.70 36.61  C 8.75 63.74 41.30 75.86 59.03 55.65  Q 60.23 55.42 60.06 56.30  A 0.50 0.50 0.0 0 1 59.88 56.61  Q 58.10 57.99 56.93 59.88  Q 56.53 60.54 57.25 60.26  Q 57.59 60.13 57.69 60.58  A 0.20 0.20 0.0 0 1 57.58 60.81  Q 57.07 61.07 56.85 61.37  Q 53.72 64.25 49.95 65.78  Q 49.49 65.96 49.63 66.43  Q 50.33 68.86 52.60 69.79  Q 53.11 70.00 53.32 70.51  Q 54.58 73.58 56.56 74.99  Q 56.04 75.47 54.06 75.42  Q 52.74 71.40 49.36 68.91  A 1.23 1.21 -77.3 0 1 48.90 68.17  Q 48.74 67.32 48.23 66.62  Q 47.93 66.21 47.43 66.24  L 34.01 67.12  Q 33.08 67.18 34.00 67.35  Q 37.18 67.93 40.34 67.34  A 0.27 0.27 0.0 0 1 40.51 67.85  Q 39.33 68.47 38.00 68.38  Q 37.56 68.35 37.63 68.78  Q 37.65 68.95 37.59 69.09  Q 37.47 69.37 37.17 69.37  Q 35.38 69.37 33.64 69.37  C 31.40 69.37 29.88 68.39 27.85 67.61  Q 27.02 67.30 25.09 67.00  C 22.89 66.66 19.43 64.81 17.98 63.07  C 16.30 61.05 14.01 59.10 12.67 57.14  Q 10.17 53.47 9.02 49.49  Q 8.62 48.14 7.91 47.26  Q 7.61 46.89 7.63 46.42  L 8.12 36.84  L 10.14 34.09  Q 11.36 34.33 12.15 34.68  C 21.45 38.79 31.39 45.43 37.24 53.89  Q 37.49 54.26 37.75 53.90  Q 45.85 42.58 56.56 33.40  Z"></path><path fill="#296e50" d="  M 0.59 58.20  Q 1.30 58.80 1.50 60.41  Q 1.25 59.85 0.97 60.30  Q 0.90 60.41 0.82 60.31  Q 0.74 60.21 0.53 60.21  Q 0.81 59.39 0.59 58.20  Z"></path><path fill="#061516" fill-opacity="0.365" d="  M 0.53 60.21  Q 0.74 60.21 0.82 60.31  Q 0.90 60.41 0.97 60.30  Q 1.25 59.85 1.50 60.41  Q 5.33 71.02 18.27 75.35  Q 12.59 76.44 7.59 75.29  Q 7.49 75.27 7.55 75.19  Q 7.64 75.09 7.54 74.89  Q 7.50 74.79 7.37 74.71  Q 4.70 72.88 2.47 70.56  Q 2.17 70.24 2.11 69.81  Q 1.88 68.28 0.91 67.08  Q 0.63 66.74 0.56 66.31  Q 0.05 63.25 0.53 60.21  Z"></path><path fill="#bef202" d="  M 56.85 61.37  Q 58.90 62.94 58.84 65.33  Q 58.82 65.82 59.11 66.23  L 63.40 72.36  L 56.56 74.99  Q 54.58 73.58 53.32 70.51  Q 53.11 70.00 52.60 69.79  Q 50.33 68.86 49.63 66.43  Q 49.49 65.96 49.95 65.78  Q 53.72 64.25 56.85 61.37  Z"></path><path fill="#061516" fill-opacity="0.365" d="  M 71.68 64.17  L 70.92 66.32  Q 70.78 66.71 70.48 67.00  Q 70.02 67.43 70.13 67.98  Q 70.19 68.32 69.85 68.37  Q 69.70 68.39 69.58 68.48  Q 69.54 68.51 69.53 68.56  Q 69.04 70.97 66.49 72.88  Q 64.03 74.74 61.92 75.35  Q 61.17 75.57 61.67 74.97  Q 62.94 73.43 64.98 73.15  A 0.77 0.77 0.0 0 0 65.64 72.42  Q 65.66 71.99 66.02 71.78  Q 66.93 71.24 67.00 71.24  Q 67.34 71.22 67.25 70.76  Q 67.13 70.15 67.75 70.25  Q 67.88 70.27 68.00 70.30  A 0.27 0.27 0.0 0 0 68.32 70.00  L 68.25 69.52  Q 68.18 69.00 68.65 68.78  Q 69.36 68.43 69.22 67.71  L 71.68 64.17  Z"></path></svg>